<?xml version="1.0" encoding="UTF-8"?>
<svg id="Layer_1" data-name="Layer 1" xmlns="http://www.w3.org/2000/svg" xmlns:xlink="http://www.w3.org/1999/xlink" version="1.1" viewBox="0 0 105.84 109.74">
  <defs>
    <style>
      .cls-1 {
        clip-path: url(#clippath);
      }

      .cls-2 {
        fill: none;
      }

      .cls-2, .cls-3, .cls-4, .cls-5 {
        stroke-width: 0px;
      }

      .cls-3 {
        fill: #383390;
      }

      .cls-4 {
        fill: #fff;
      }

      .cls-4, .cls-5 {
        fill-rule: evenodd;
      }

      .cls-5 {
        fill: #8dc63f;
      }
    </style>
    <clipPath id="clippath">
      <rect class="cls-2" x="9.05" y="11.32" width="87.75" height="87.75"/>
    </clipPath>
  </defs>
  <g class="cls-1">
    <rect class="cls-3" x="9.05" y="11.32" width="87.75" height="87.75" rx="16.02" ry="16.02"/>
  </g>
  <path class="cls-4" d="M71.17,63.95v-15.04c0-10.04-7.72-18.26-17.16-18.26h0c-9.44,0-17.16,8.22-17.16,18.26v13.9c0,.09-.03.16-.09.23l-6.6,7.02c-.09.09-.21.12-.33.07-.11-.05-.19-.16-.19-.29,0-7.89,0-13.03,0-20.92,0-14.26,10.96-25.92,24.36-25.92h0c13.4,0,24.36,11.67,24.36,25.92,0,8.27,0,13.79,0,22.06,0,.13-.07.24-.19.3-.11.05-.24.02-.33-.07l-6.6-7.02c-.06-.06-.09-.14-.09-.23"/>
  <path class="cls-5" d="M75.15,73.72c-.05,0-.11,0-.16,0-.71.03-1.33-.21-1.83-.72l-9.98-10.17c-.47-.48-.71-1.07-.71-1.75v-5.43s.03,0,.05,0l.08-1.93c.03-.67-.19-1.27-.64-1.78l-7.17-7.69c.1-.51.35-.96.75-1.33.67-.62,1.1-1.53,1.1-2.53,0-1.89-1.5-3.42-3.35-3.42s-3.35,1.53-3.35,3.42c0,1,.42,1.91,1.1,2.53.48.45.74,1.02.78,1.67-.45.5-.99,1.06-1.12,1.19l-5.81,5.55c-.49.47-.75,1.05-.78,1.72l.06,1.48v6.53c0,.68-.24,1.27-.71,1.75l-8.43,8.6c-.5.51-1.13.76-1.83.72-.05,0-.11,0-.16,0-1.85,0-3.35,1.53-3.35,3.42s1.5,3.42,3.35,3.42,3.35-1.53,3.35-3.42c0-.06,0-.11,0-.17-.03-.72.21-1.36.71-1.87l9.29-9.47c.47-.48.71-1.07.71-1.75l-.08-7.8v-.19c.03-.67.29-1.25.78-1.72l4.09-3.9.13,13.83c0,.68-.24,1.27-.71,1.75l-8.25,8.41c-.47.48-.71,1.07-.71,1.75v8.37c0,.72-.27,1.35-.8,1.83-.68.62-1.1,1.53-1.1,2.53,0,1.89,1.5,3.42,3.35,3.42s3.35-1.53,3.35-3.42c0-1-.42-1.91-1.1-2.53-.53-.49-.8-1.11-.8-1.83v-7.14c0-.68.24-1.27.71-1.75l8.25-8.41c.47-.48.72-1.07.71-1.75l-.14-15.69,4.21,4.93c.28.31.46.68.56,1.08,0,.07.03.13.03.2v8.04c0,.68.24,1.27.71,1.75l10.83,11.04c.5.51.74,1.15.71,1.87,0,.05,0,.11,0,.17,0,1.89,1.5,3.42,3.35,3.42s3.35-1.53,3.35-3.42-1.5-3.42-3.35-3.42Z"/>
</svg>